<svg width="31" height="30" viewBox="0 0 31 30" fill="none" xmlns="http://www.w3.org/2000/svg">
<circle cx="15.9844" cy="15" r="14.5" fill="black" fill-opacity="0.39" stroke="white"/>
<path opacity="0.4" d="M21.6136 13.8509C21.3861 13.5243 20.9836 13.3376 20.5227 13.3376H18.1311C17.9736 13.3376 17.8277 13.2734 17.7286 13.1568C17.6236 13.0401 17.5827 12.8768 17.6061 12.7076L17.9036 10.7943C18.0319 10.2226 17.6527 9.58092 17.0811 9.38842C16.5502 9.19009 15.9261 9.45842 15.6752 9.83759L13.2136 13.4951L13.1436 13.6118V18.7684L13.2311 18.8559L15.0802 20.2851C15.3252 20.5301 15.8794 20.6643 16.2702 20.6643H18.5452C19.3269 20.6643 20.1144 20.0751 20.2894 19.3576L21.7244 14.9884C21.8761 14.5743 21.8352 14.1718 21.6136 13.8509Z" fill="white"/>
<path d="M12.0236 11.7217H11.4228C10.5186 11.7217 10.1511 12.0717 10.1511 12.935V18.8033C10.1511 19.6667 10.5186 20.0167 11.4228 20.0167H12.0236C12.9278 20.0167 13.2953 19.6667 13.2953 18.8033V12.935C13.2953 12.0717 12.9278 11.7217 12.0236 11.7217Z" fill="white"/>
</svg>
