<svg width="31" height="30" viewBox="0 0 31 30" fill="none" xmlns="http://www.w3.org/2000/svg">
<circle cx="15.9844" cy="15" r="14.5" fill="black" fill-opacity="0.39" stroke="white"/>
<path d="M18.4811 20.8915H16.2644C15.9378 20.8915 15.2261 20.7923 14.8469 20.4131L13.0794 19.0481L13.6161 18.354L15.4244 19.754C15.5703 19.894 15.9378 20.0106 16.2644 20.0106H18.4811C19.0061 20.0106 19.5719 19.5906 19.6886 19.1181L21.1003 14.8306C21.1936 14.574 21.1761 14.3406 21.0536 14.1715C20.9253 13.9906 20.6919 13.8856 20.4061 13.8856H18.0728C17.7694 13.8856 17.4894 13.7573 17.2969 13.5356C17.0986 13.3081 17.0111 13.0048 17.0578 12.6898L17.3494 10.8173C17.4194 10.4906 17.1978 10.1231 16.8828 10.0181C16.5969 9.91312 16.2294 10.0648 16.1011 10.2515L13.7094 13.8098L12.9861 13.3256L15.3778 9.76729C15.7453 9.21896 16.5503 8.95646 17.1803 9.19562C17.9094 9.43479 18.3761 10.2398 18.2128 10.9865L17.9269 12.824C17.9211 12.8648 17.9211 12.9231 17.9619 12.9698C17.9911 12.999 18.0319 13.0165 18.0786 13.0165H20.4119C20.9836 13.0165 21.4794 13.2556 21.7711 13.6698C22.0569 14.0723 22.1153 14.6031 21.9286 15.1165L20.5344 19.3631C20.3186 20.209 19.4203 20.8915 18.4811 20.8915Z" fill="white"/>
<path d="M12.1228 20.2502H11.5395C10.4603 20.2502 9.9353 19.7427 9.9353 18.7044V12.9877C9.9353 11.9494 10.4603 11.4419 11.5395 11.4419H12.1228C13.202 11.4419 13.727 11.9494 13.727 12.9877V18.7044C13.727 19.7427 13.202 20.2502 12.1228 20.2502ZM11.5395 12.3169C10.9036 12.3169 10.8103 12.4686 10.8103 12.9877V18.7044C10.8103 19.2236 10.9036 19.3752 11.5395 19.3752H12.1228C12.7586 19.3752 12.852 19.2236 12.852 18.7044V12.9877C12.852 12.4686 12.7586 12.3169 12.1228 12.3169H11.5395Z" fill="white"/>
</svg>
