<svg width="31" height="30" viewBox="0 0 31 30" fill="none" xmlns="http://www.w3.org/2000/svg">
<circle cx="15.9844" cy="15" r="14.5" fill="black" fill-opacity="0.39" stroke="white"/>
<path d="M18.7961 9.11426H13.1728C11.9361 9.11426 10.9211 10.1293 10.9211 11.3659V19.5851C10.9211 20.6351 11.6736 21.0784 12.5953 20.5709L15.442 18.9901C15.7453 18.8209 16.2353 18.8209 16.5328 18.9901L19.3795 20.5709C20.3011 21.0843 21.0536 20.6409 21.0536 19.5851V11.3659C21.0478 10.1293 20.0386 9.11426 18.7961 9.11426ZM18.0961 13.2676L15.7628 15.6009C15.6753 15.6884 15.5645 15.7293 15.4536 15.7293C15.3428 15.7293 15.232 15.6884 15.1445 15.6009L14.2695 14.7259C14.1003 14.5568 14.1003 14.2768 14.2695 14.1076C14.4386 13.9384 14.7186 13.9384 14.8878 14.1076L15.4536 14.6734L17.4778 12.6493C17.647 12.4801 17.927 12.4801 18.0961 12.6493C18.2653 12.8184 18.2653 13.0984 18.0961 13.2676Z" fill="white"/>
</svg>
