<svg width="31" height="30" viewBox="0 0 31 30" fill="none" xmlns="http://www.w3.org/2000/svg">
<circle cx="15.9844" cy="15" r="14.5" fill="black" fill-opacity="0.39" stroke="white"/>
<path d="M13.0678 18.3541H11.9011C10.4895 18.3541 9.71362 17.5782 9.71362 16.1666V13.8332C9.71362 12.4216 10.4895 11.6457 11.9011 11.6457H12.7353C12.8695 11.6457 13.0036 11.6049 13.1203 11.5349L14.8236 10.4674C15.6753 9.93655 16.5036 9.83738 17.157 10.1991C17.8103 10.5607 18.1661 11.3132 18.1661 12.3224V12.8824C18.1661 13.1216 17.9678 13.3199 17.7286 13.3199C17.4895 13.3199 17.2911 13.1216 17.2911 12.8824V12.3224C17.2911 11.6574 17.087 11.1616 16.7311 10.9691C16.3753 10.7707 15.8503 10.8582 15.2845 11.2141L13.5811 12.2757C13.3303 12.4391 13.0328 12.5207 12.7353 12.5207H11.9011C10.9795 12.5207 10.5886 12.9116 10.5886 13.8332V16.1666C10.5886 17.0882 10.9795 17.4791 11.9011 17.4791H13.0678C13.307 17.4791 13.5053 17.6774 13.5053 17.9166C13.5053 18.1557 13.307 18.3541 13.0678 18.3541Z" fill="white"/>
<path d="M16.3051 20.0109C15.8443 20.0109 15.3368 19.8475 14.8293 19.5267C14.6251 19.3984 14.561 19.13 14.6893 18.9259C14.8176 18.7217 15.086 18.6575 15.2901 18.7859C15.856 19.1359 16.381 19.2292 16.7368 19.0309C17.0926 18.8325 17.2968 18.3367 17.2968 17.6775V15.5542C17.2968 15.315 17.4951 15.1167 17.7343 15.1167C17.9735 15.1167 18.1718 15.315 18.1718 15.5542V17.6775C18.1718 18.6809 17.8101 19.4392 17.1626 19.8009C16.9001 19.9409 16.6085 20.0109 16.3051 20.0109Z" fill="white"/>
<path d="M19.4843 17.771C19.391 17.771 19.3035 17.7419 19.2218 17.6835C19.0293 17.5377 18.9885 17.2635 19.1343 17.071C19.8693 16.091 20.0268 14.7902 19.5543 13.6644C19.461 13.4427 19.566 13.186 19.7876 13.0927C20.0093 12.9994 20.266 13.1044 20.3593 13.326C20.9543 14.7377 20.7501 16.3769 19.8343 17.6019C19.7468 17.7127 19.6185 17.771 19.4843 17.771Z" fill="white"/>
<path d="M20.5519 19.229C20.4586 19.229 20.3711 19.1999 20.2894 19.1415C20.0969 18.9957 20.0561 18.7215 20.2019 18.529C21.4503 16.8665 21.7244 14.6382 20.9194 12.719C20.8261 12.4974 20.9311 12.2407 21.1528 12.1474C21.3803 12.054 21.6311 12.159 21.7244 12.3807C22.6519 14.5857 22.3369 17.1407 20.9019 19.054C20.8203 19.1707 20.6861 19.229 20.5519 19.229Z" fill="white"/>
<path d="M10.1511 21.2707C10.0403 21.2707 9.92946 21.2298 9.84196 21.1423C9.6728 20.9732 9.6728 20.6932 9.84196 20.524L21.5086 8.85734C21.6778 8.68818 21.9578 8.68818 22.127 8.85734C22.2961 9.02651 22.2961 9.30651 22.127 9.47568L10.4603 21.1423C10.3728 21.2298 10.262 21.2707 10.1511 21.2707Z" fill="white"/>
</svg>
