<svg width="31" height="30" viewBox="0 0 31 30" fill="none" xmlns="http://www.w3.org/2000/svg">
<circle cx="15.9844" cy="15" r="14.5" fill="black" fill-opacity="0.39" stroke="white"/>
<path d="M10.1511 13.8334V16.1667C10.1511 17.3334 10.7345 17.9167 11.9011 17.9167H12.7353C12.9511 17.9167 13.167 17.9809 13.3536 18.0917L15.057 19.1592C16.527 20.0809 17.7345 19.41 17.7345 17.6775V12.3225C17.7345 10.5842 16.527 9.91921 15.057 10.8409L13.3536 11.9084C13.167 12.0192 12.9511 12.0834 12.7353 12.0834H11.9011C10.7345 12.0834 10.1511 12.6667 10.1511 13.8334Z" stroke="white" stroke-width="1.2"/>
<path d="M19.4844 12.6665C20.5227 14.049 20.5227 15.9507 19.4844 17.3332" stroke="white" stroke-width="1.2" stroke-linecap="round" stroke-linejoin="round"/>
<path d="M20.5518 11.2085C22.2376 13.4543 22.2376 16.546 20.5518 18.7918" stroke="white" stroke-width="1.2" stroke-linecap="round" stroke-linejoin="round"/>
</svg>
